<?xml version="1.0" standalone="no"?>
<!DOCTYPE svg PUBLIC "-//W3C//DTD SVG 20010904//EN"
 "http://www.w3.org/TR/2001/REC-SVG-20010904/DTD/svg10.dtd">
<svg version="1.0" xmlns="http://www.w3.org/2000/svg"
 width="385.000000pt" height="385.000000pt" viewBox="0 0 385.000000 385.000000"
 preserveAspectRatio="xMidYMid meet">
<metadata>
Created by potrace 1.11, written by Peter Selinger 2001-2013
</metadata>
<g transform="translate(0.000000,385.000000) scale(0.100000,-0.100000)"
fill="#000000" stroke="none">
<path d="M1098 3730 c-19 -16 -38 -26 -42 -23 -3 3 -6 -2 -6 -12 0 -10 -3 -16
-6 -12 -4 3 -12 1 -19 -6 -7 -7 -24 -20 -39 -31 -14 -10 -23 -23 -19 -29 4 -6
0 -8 -10 -4 -10 3 -17 2 -17 -4 0 -6 -5 -7 -12 -3 -6 4 -8 3 -5 -3 4 -6 -2
-21 -13 -33 -11 -13 -20 -20 -20 -16 0 4 -15 -7 -32 -26 -18 -18 -33 -36 -33
-39 0 -2 -14 -18 -30 -34 -17 -17 -33 -34 -35 -40 -3 -5 -8 -9 -11 -8 -4 1 -6
-6 -5 -15 0 -9 -3 -19 -9 -22 -12 -6 -45 -67 -50 -94 -3 -11 -10 -23 -16 -26
-6 -4 -10 -10 -10 -14 3 -23 -1 -36 -11 -34 -7 2 -12 -1 -13 -7 0 -5 -4 -16
-9 -24 -7 -10 -5 -12 5 -7 10 5 9 4 -1 -6 -9 -7 -15 -25 -15 -40 1 -16 -2 -28
-5 -28 -3 0 -7 -10 -7 -22 -1 -13 -7 -24 -13 -26 -5 -2 -8 -8 -4 -13 3 -5 2
-9 -3 -9 -4 0 -8 -12 -9 -27 -2 -74 -13 -145 -26 -160 -9 -12 -9 -15 0 -9 6 4
12 2 12 -3 0 -6 -6 -11 -12 -11 -8 0 -9 -3 -3 -8 13 -9 13 -85 0 -94 -6 -5 -6
-8 0 -8 6 0 9 -23 9 -52 -1 -29 2 -58 8 -65 6 -7 5 -14 -2 -18 -8 -5 -7 -11 2
-23 11 -13 11 -14 -1 -7 -11 6 -12 5 -5 -6 5 -8 10 -32 12 -54 1 -22 4 -57 5
-77 2 -21 7 -41 12 -45 4 -5 5 -2 0 6 -6 10 -4 12 4 6 9 -5 9 -11 3 -17 -7 -7
-7 -19 -2 -33 5 -13 6 -25 4 -28 -3 -3 2 -19 10 -35 12 -23 13 -32 3 -35 -9
-4 -8 -6 2 -6 11 -1 11 -4 1 -16 -9 -11 -9 -15 -1 -15 7 0 9 -4 6 -10 -3 -5
-1 -10 4 -10 6 0 11 -13 11 -29 0 -17 4 -33 10 -36 5 -3 10 -17 10 -30 0 -13
5 -27 11 -30 6 -4 8 -14 5 -22 -4 -9 -2 -11 6 -7 7 5 9 0 6 -14 -4 -12 -2 -20
2 -17 5 3 11 1 15 -5 3 -5 0 -10 -7 -10 -10 0 -10 -2 -1 -8 7 -4 14 -17 16
-27 6 -33 19 -55 27 -50 5 3 6 -4 3 -15 -3 -11 -1 -20 4 -20 5 0 9 -8 10 -18
2 -23 84 -196 95 -200 4 -2 8 -8 8 -14 0 -5 10 -19 23 -30 12 -11 17 -17 10
-13 -15 7 24 -68 48 -94 10 -10 15 -22 11 -27 -4 -4 -2 -4 5 -1 10 6 73 -37
81 -55 2 -5 8 -8 12 -8 5 0 20 -10 32 -22 13 -13 45 -41 72 -63 26 -22 68 -67
92 -100 24 -33 48 -65 53 -71 6 -7 7 -15 4 -18 -4 -3 -1 -6 5 -6 7 0 11 -3 11
-8 -3 -14 23 -72 32 -72 5 0 9 -7 9 -15 0 -8 3 -15 8 -16 4 0 16 -2 27 -5 11
-2 32 -5 47 -6 17 0 25 -5 21 -12 -3 -6 0 -5 7 1 11 10 17 9 32 -4 12 -10 18
-12 18 -4 0 7 5 9 13 4 6 -4 21 -8 32 -8 44 -2 105 -17 100 -25 -6 -10 15 -8
34 4 8 5 17 3 22 -5 6 -9 12 -10 17 -4 8 11 32 13 48 3 6 -4 14 -4 18 -1 11
11 37 12 30 1 -4 -6 1 -8 15 -3 17 5 20 3 14 -11 -4 -12 -3 -15 5 -10 7 4 12
14 12 23 0 11 4 13 13 6 6 -5 26 -9 44 -8 17 0 29 -3 27 -7 -3 -4 0 -8 5 -8 6
0 11 4 11 9 0 5 11 8 25 6 14 -1 25 3 25 9 0 6 5 4 10 -4 9 -13 10 -13 10 0 0
13 1 13 10 0 5 -8 10 -10 10 -5 0 6 9 11 20 11 11 0 20 -4 20 -9 0 -5 6 -4 14
2 11 9 15 9 19 -1 4 -10 6 -10 6 0 1 6 10 12 22 12 13 0 18 -4 14 -12 -4 -7 0
-5 8 5 13 15 15 15 20 2 8 -20 -18 -31 -70 -31 -24 1 -43 -3 -43 -8 0 -5 -7
-3 -15 4 -8 7 -15 8 -15 3 0 -12 -30 -11 -49 2 -9 5 -12 4 -8 -1 8 -13 -46
-12 -55 1 -5 7 -8 6 -8 0 0 -6 -13 -11 -29 -10 -21 0 -27 4 -23 15 4 12 1 12
-13 -2 -13 -12 -24 -14 -41 -7 -17 6 -24 5 -24 -4 0 -8 -4 -7 -10 3 -6 9 -10
11 -10 3 0 -7 -6 -10 -12 -8 -7 3 -40 7 -73 10 -33 3 -71 7 -85 9 -14 2 -31 4
-38 5 -7 1 -10 6 -6 12 4 8 0 8 -15 0 -13 -7 -21 -8 -21 -2 0 5 -9 8 -20 6
-11 -2 -22 0 -25 5 -3 5 -14 7 -25 5 -11 -2 -22 0 -25 6 -4 5 -14 5 -27 -2
-15 -8 -19 -8 -14 0 5 7 -3 11 -20 11 -15 0 -24 -3 -21 -6 3 -4 2 -15 -4 -25
-5 -11 -6 -19 -1 -19 4 0 8 -10 9 -23 2 -94 3 -97 24 -97 11 0 18 -4 15 -8 -3
-5 8 -6 25 -4 19 3 29 0 29 -8 0 -10 3 -10 15 0 12 10 15 9 15 -6 0 -16 2 -17
10 -4 5 8 10 10 10 4 0 -6 13 -9 30 -6 20 3 30 0 30 -8 0 -9 3 -10 13 -1 8 6
17 8 20 4 7 -6 78 -13 182 -16 33 -1 66 -6 74 -11 10 -6 12 -6 7 2 -4 7 -1 12
8 12 8 0 18 -5 21 -10 4 -6 13 -7 23 -2 9 5 36 9 60 8 23 -1 42 4 42 9 0 6 5
3 10 -5 5 -8 10 -10 10 -5 0 6 32 10 75 10 41 0 75 3 75 8 0 4 11 5 25 3 15
-3 25 0 25 7 0 7 4 6 10 -3 9 -13 10 -13 10 0 0 13 1 13 10 0 7 -11 10 -11 10
-2 0 7 5 10 10 7 6 -3 10 -2 10 2 0 5 15 9 33 10 30 2 72 9 72 13 0 1 13 4 30
6 16 2 31 8 33 13 2 5 9 8 17 5 11 -4 13 4 11 38 -1 24 1 51 6 61 6 11 5 22
-4 30 -15 15 -66 20 -82 9 -6 -5 -26 -9 -45 -10 -18 -2 -42 -7 -52 -13 -14 -7
-19 -6 -19 3 0 9 -3 9 -8 2 -11 -17 -54 -24 -69 -12 -18 14 -16 31 2 24 8 -3
15 -2 15 3 0 4 13 7 30 6 17 -1 31 4 35 13 4 10 9 11 18 4 13 -11 42 -11 53 1
12 12 26 8 19 -5 -4 -7 -1 -6 7 3 7 9 21 15 31 13 9 -1 17 2 17 7 0 5 9 9 20
9 11 0 24 8 27 18 4 9 9 19 12 22 7 5 28 50 29 63 10 62 208 307 250 307 6 0
12 3 12 8 0 4 18 18 40 32 38 23 97 96 92 113 -1 4 2 7 7 7 5 0 12 11 15 25 4
14 11 25 16 25 5 0 7 7 4 15 -4 8 -2 15 4 15 9 0 25 37 23 53 -1 4 5 10 13 13
8 3 12 12 9 20 -3 8 0 14 6 14 6 0 10 3 9 8 -1 4 5 21 12 37 7 17 12 38 12 48
0 9 3 15 8 12 5 -3 12 10 16 30 3 20 10 32 17 28 5 -3 8 -2 5 3 -3 5 -1 20 5
34 5 14 11 33 13 42 2 10 5 23 6 30 2 7 10 19 18 26 8 8 9 11 3 7 -7 -3 -13
-1 -13 4 0 6 4 11 8 11 4 0 9 8 10 18 1 9 3 26 4 37 2 11 10 26 18 33 12 11
12 14 2 19 -10 4 -9 10 5 26 12 14 13 18 3 12 -13 -8 -13 -6 -1 8 7 9 11 24 7
32 -3 8 -2 15 2 15 8 0 9 5 14 77 2 25 9 45 17 48 9 4 10 9 3 18 -6 7 -7 18
-2 26 4 8 6 20 3 28 -3 7 0 13 6 13 9 0 9 5 1 20 -6 11 -7 20 -2 20 10 0 9 61
-1 77 -4 6 -2 15 4 19 8 5 9 3 4 -6 -5 -9 -4 -11 4 -6 6 4 9 12 5 17 -3 5 -6
64 -7 129 -1 66 -6 120 -10 120 -5 0 -7 11 -5 25 3 14 2 25 -3 25 -4 0 -6 11
-4 25 1 14 -1 25 -6 25 -5 0 -6 6 -3 14 3 8 1 17 -4 20 -5 3 -8 17 -7 31 2 14
-1 25 -6 25 -5 0 -9 13 -9 29 0 16 -4 31 -9 33 -8 2 -16 31 -20 71 -1 5 -5 5
-11 2 -5 -3 -10 1 -10 11 0 9 -9 32 -21 50 -11 19 -17 34 -13 34 4 0 -3 8 -14
19 -12 10 -22 23 -22 30 0 6 -4 11 -10 11 -5 0 -10 7 -10 15 0 8 -5 15 -12 15
-6 0 -9 3 -5 6 3 3 -21 32 -53 64 -32 32 -56 60 -54 63 3 3 -4 8 -15 12 -12 3
-19 10 -16 15 3 4 -7 15 -20 24 -14 10 -23 22 -19 28 4 7 3 8 -5 4 -7 -4 -15
2 -20 16 -4 13 -11 22 -15 21 -15 -7 -26 -2 -26 11 0 19 -23 26 -37 11 -9 -10
-9 -14 2 -19 8 -3 12 -12 9 -20 -3 -8 -1 -24 6 -35 8 -16 8 -21 -1 -21 -8 0
-9 -4 0 -13 6 -8 8 -17 4 -20 -3 -4 -1 -7 5 -7 7 0 10 -15 9 -37 -1 -21 2 -43
5 -49 4 -5 -16 -35 -43 -65 -28 -30 -48 -47 -44 -39 5 12 4 12 -7 -1 -17 -21
-85 -34 -90 -18 -3 9 -9 9 -26 0 -12 -6 -22 -8 -22 -3 0 5 -11 8 -24 7 -14 -2
-27 3 -30 12 -3 8 -11 11 -16 8 -6 -4 -17 -1 -25 5 -8 7 -15 9 -15 4 0 -5 -7
0 -15 10 -11 14 -15 16 -15 5 0 -12 -2 -12 -9 0 -5 7 -14 10 -20 7 -6 -4 -11
-2 -11 3 0 6 -9 11 -21 11 -11 0 -17 5 -14 10 4 6 -5 10 -19 10 -14 0 -26 5
-26 10 0 6 -7 10 -15 10 -8 0 -15 5 -15 11 0 5 -4 8 -9 5 -5 -3 -11 0 -14 8
-10 24 -60 27 -84 4 -12 -12 -20 -25 -17 -29 3 -5 0 -9 -7 -9 -6 0 -9 -8 -6
-19 3 -12 -1 -22 -10 -25 -8 -3 -11 -10 -8 -16 3 -5 1 -10 -5 -10 -7 0 -9 -8
-5 -19 3 -11 1 -23 -6 -26 -8 -6 -7 -10 2 -16 8 -5 10 -9 4 -9 -11 0 -13 -59
-2 -76 3 -6 3 -14 0 -18 -10 -10 -12 -36 -3 -36 4 0 6 -10 2 -22 -4 -16 -2
-19 9 -13 12 7 12 6 1 -7 -10 -12 -10 -18 -2 -23 7 -4 10 -18 7 -31 -2 -14 1
-24 7 -24 8 0 8 -2 0 -8 -6 -4 -10 -15 -8 -24 1 -10 -2 -18 -7 -18 -5 0 -9 -8
-9 -19 0 -14 -6 -17 -25 -13 -23 4 -30 13 -26 35 0 4 -3 7 -8 7 -5 0 -9 22 -8
50 0 33 4 47 11 43 6 -4 5 0 -2 9 -10 12 -10 18 -1 23 8 6 7 10 -2 16 -9 6
-10 9 -2 9 8 0 11 16 10 45 -1 25 1 45 4 45 7 0 5 38 -3 46 -4 3 -4 17 -2 30
3 14 0 24 -7 24 -6 0 -9 9 -6 20 3 11 1 20 -3 20 -5 0 -7 9 -5 20 2 12 0 18
-6 14 -6 -3 -13 4 -16 16 -3 12 -11 19 -19 16 -7 -3 -14 0 -16 5 -4 11 -39 14
-70 7 -17 -4 -76 -58 -63 -58 4 0 -3 -9 -16 -21 -13 -11 -17 -18 -9 -14 10 4
9 2 -2 -8 -10 -8 -15 -16 -12 -19 2 -3 -7 -5 -21 -5 -14 0 -25 4 -25 9 0 5 -4
6 -10 3 -5 -3 -10 1 -10 9 0 9 -9 16 -20 16 -14 0 -18 5 -13 16 4 12 0 15 -18
12 -19 -2 -23 -8 -21 -27 2 -13 0 -21 -5 -18 -5 3 -15 -3 -22 -15 -7 -11 -8
-17 -2 -13 6 3 11 2 11 -3 0 -6 -7 -13 -16 -16 -9 -4 -14 -13 -10 -22 3 -9 2
-12 -5 -9 -6 4 -13 -2 -16 -14 -3 -11 -9 -19 -13 -16 -4 3 -15 -7 -24 -20 -9
-14 -21 -23 -25 -20 -5 2 -12 -7 -15 -20 -4 -14 -11 -23 -16 -20 -6 3 -10 1
-10 -5 0 -6 -4 -9 -9 -5 -5 3 -12 1 -15 -4 -7 -11 -25 -9 -45 3 -10 7 -12 6
-6 -4 6 -10 4 -11 -6 -4 -8 4 -23 10 -34 11 -11 2 -28 14 -38 26 -10 12 -15
15 -11 7 4 -8 -6 -1 -24 17 -18 17 -32 36 -32 42 0 6 -4 11 -10 11 -5 0 -10 6
-10 13 0 7 -9 23 -20 35 -12 12 -18 22 -15 22 3 0 1 9 -5 19 -7 15 -17 18 -37
14 -16 -3 -34 -6 -40 -6 -7 0 -13 -3 -13 -7 0 -4 -6 -7 -12 -8 -7 -1 -26 -4
-43 -7 -52 -11 -145 -13 -139 -4 3 5 0 9 -6 9 -6 0 -9 4 -6 9 4 5 0 12 -6 14
-10 4 -10 6 0 6 7 1 10 6 7 11 -4 6 -1 18 7 27 11 14 11 16 -1 9 -8 -5 -6 3 5
20 11 15 19 31 19 34 0 3 4 4 8 2 5 -1 6 2 3 7 -7 11 130 221 145 221 5 0 9 7
9 15 0 8 3 15 8 15 12 0 32 39 24 44 -5 3 -25 -8 -44 -24z m42 16 c0 -2 -8
-10 -17 -17 -16 -13 -17 -12 -4 4 13 16 21 21 21 13z m1543 -890 c-3 -6 4 -2
17 9 13 11 20 14 16 8 -5 -9 1 -13 18 -13 14 0 28 1 29 3 2 1 11 -4 20 -12 9
-7 24 -11 32 -7 8 3 15 1 15 -4 0 -5 7 -6 17 -3 11 4 14 3 9 -5 -6 -10 6 -17
18 -9 2 1 13 -7 25 -17 12 -11 21 -16 21 -12 0 4 11 -4 25 -18 14 -14 25 -30
25 -36 0 -6 5 -8 10 -5 6 3 10 1 10 -4 0 -6 8 -19 18 -29 43 -46 66 -78 64
-89 -2 -7 2 -13 8 -13 5 0 10 -9 10 -20 0 -11 5 -20 11 -20 5 0 8 -4 4 -9 -3
-5 -1 -12 5 -16 6 -4 8 -10 5 -15 -3 -5 -1 -11 3 -14 8 -4 11 -31 14 -96 0 -8
6 -21 12 -29 7 -10 7 -13 0 -8 -7 4 -10 -16 -10 -61 1 -45 -4 -73 -14 -86 -13
-17 -13 -18 0 -11 12 7 13 6 4 -6 -6 -8 -12 -21 -12 -29 -2 -32 -9 -52 -23
-61 -8 -5 -11 -9 -6 -9 4 0 0 -15 -10 -32 -9 -18 -16 -36 -15 -40 1 -5 -6 -8
-16 -8 -14 0 -15 -2 -2 -10 11 -7 11 -10 2 -10 -7 0 -10 -4 -7 -10 3 -5 1 -10
-6 -10 -7 0 -9 -3 -6 -6 4 -4 -2 -19 -13 -34 -11 -15 -17 -30 -14 -32 3 -3 -9
-17 -25 -31 -16 -13 -27 -28 -24 -31 4 -3 1 -6 -6 -6 -7 0 -9 -4 -6 -10 3 -5
1 -10 -5 -10 -6 0 -9 -4 -5 -9 3 -6 -4 -8 -15 -6 -11 2 -18 0 -15 -5 3 -4 -8
-14 -25 -22 -16 -7 -30 -17 -30 -21 0 -5 -4 -5 -10 -2 -5 3 -10 1 -10 -4 0 -6
-8 -11 -17 -11 -16 0 -16 -2 -3 -11 12 -8 9 -10 -12 -6 -16 2 -28 0 -28 -5 0
-5 -4 -6 -10 -3 -5 3 -10 0 -10 -8 0 -11 -18 -14 -85 -14 -47 0 -87 3 -90 7
-2 4 -16 6 -30 5 -14 -2 -25 1 -25 6 0 6 -4 7 -10 4 -5 -3 -10 -1 -10 5 0 6
-4 8 -10 5 -5 -3 -10 -2 -10 3 0 9 -37 25 -52 23 -5 -1 -8 6 -8 16 0 9 -3 13
-7 10 -3 -4 -12 1 -20 11 -9 10 -12 11 -7 2 4 -8 -5 -2 -19 13 -15 15 -27 32
-27 37 0 5 -9 12 -20 15 -11 4 -18 10 -15 15 3 5 -6 19 -20 32 -14 12 -25 27
-25 34 0 7 -4 14 -10 16 -5 2 -11 15 -12 30 -1 15 -4 25 -7 22 -7 -6 -31 54
-31 78 0 10 -4 17 -8 14 -4 -2 -9 6 -10 19 -3 38 -6 49 -16 57 -6 4 -5 12 3
21 9 11 9 17 0 22 -6 5 -9 19 -5 37 3 18 2 27 -4 23 -7 -4 -7 3 0 19 5 14 7
34 5 45 -2 12 1 21 8 21 8 0 8 3 -2 9 -8 5 -9 11 -3 15 6 3 9 17 7 31 -1 14 1
25 6 25 5 0 6 6 3 14 -3 8 0 17 5 21 6 3 9 11 6 16 -4 5 -1 9 4 9 6 0 11 5 11
11 0 5 -6 7 -12 4 -7 -4 -6 0 2 7 22 20 41 58 35 68 -4 6 -1 10 5 10 6 0 14 8
17 18 4 9 15 25 25 34 11 9 19 19 18 23 -2 10 59 63 65 57 3 -3 5 2 5 12 0 9
5 14 10 11 6 -3 10 -1 10 5 0 6 4 9 9 6 5 -3 11 1 15 9 3 8 12 15 19 15 8 0
20 7 27 15 7 8 16 13 20 10 5 -3 12 0 15 6 4 5 13 8 21 5 8 -3 14 -1 14 5 0 6
5 7 10 4 6 -3 10 -2 10 4 0 5 9 8 20 6 11 -2 20 2 20 8 0 7 4 6 10 -3 6 -9 10
-10 10 -3 0 6 9 10 20 8 11 -2 22 0 25 5 8 13 46 -1 38 -14z m-1446 -19 c13
-2 26 -6 29 -10 4 -4 15 -7 25 -7 9 0 19 -6 22 -13 3 -8 15 -13 28 -12 21 1
39 -9 74 -42 8 -7 17 -13 20 -13 8 0 48 -43 80 -85 11 -14 34 -40 50 -57 17
-16 24 -27 17 -23 -8 4 -2 -12 13 -35 15 -24 25 -51 22 -61 -3 -11 -1 -17 4
-13 5 3 9 -2 9 -11 0 -10 -5 -14 -12 -10 -7 4 -6 1 3 -7 9 -7 15 -21 13 -30
-1 -10 2 -18 7 -18 6 0 8 -4 5 -9 -3 -5 1 -12 10 -15 9 -4 12 -11 7 -18 -12
-20 -13 -42 -1 -49 6 -4 7 -12 3 -19 -8 -13 -17 -70 -16 -104 0 -11 -5 -28
-10 -39 -9 -15 -8 -18 3 -11 10 6 11 5 2 -7 -6 -8 -10 -22 -9 -31 2 -9 -4 -19
-12 -22 -8 -4 -13 -13 -9 -21 3 -10 -1 -15 -12 -15 -13 0 -14 -2 -3 -9 9 -6
10 -11 2 -15 -6 -4 -11 -16 -11 -27 0 -11 -4 -17 -10 -14 -5 3 -7 0 -4 -8 3
-8 -2 -17 -10 -20 -8 -3 -13 -13 -12 -22 3 -20 -43 -75 -61 -75 -7 0 -12 -6
-10 -12 1 -7 -4 -12 -10 -11 -7 2 -12 -3 -10 -10 1 -6 -4 -11 -11 -9 -8 1 -11
-2 -8 -7 4 -5 -3 -16 -14 -24 -11 -7 -18 -17 -15 -20 3 -4 2 -5 -2 -2 -3 3
-15 -3 -26 -12 -15 -13 -19 -14 -13 -3 4 8 1 7 -7 -3 -9 -10 -24 -20 -34 -22
-10 -2 -19 -4 -20 -4 -2 -1 -6 -1 -9 0 -4 0 -10 -5 -15 -12 -6 -10 -11 -10
-23 0 -13 11 -16 11 -16 -3 0 -9 -5 -16 -11 -16 -5 0 -7 5 -3 12 5 7 3 8 -6 3
-17 -10 -120 -13 -120 -3 0 4 -7 4 -17 1 -10 -4 -14 -2 -9 5 4 7 -1 10 -13 7
-11 -2 -30 5 -42 16 -12 10 -25 19 -29 19 -4 0 -23 13 -41 30 -19 16 -42 32
-52 36 -9 3 -15 10 -12 15 4 5 -5 14 -19 21 -14 6 -26 17 -26 25 0 7 -9 18
-19 25 -10 6 -17 18 -14 25 3 7 0 13 -7 13 -6 0 -9 4 -5 9 3 5 -4 16 -16 25
-12 8 -18 19 -14 25 3 6 3 11 -2 11 -11 0 -34 51 -27 61 3 5 -2 9 -10 9 -9 0
-13 6 -10 14 3 8 -2 25 -10 38 -9 14 -13 28 -9 32 4 4 1 11 -7 16 -13 9 -13
10 0 10 12 0 13 2 1 9 -7 5 -13 20 -13 35 0 14 -4 26 -8 26 -6 0 -7 204 -1
218 1 1 1 5 2 10 0 4 7 11 15 15 11 7 12 12 4 22 -8 10 -7 16 7 24 14 8 15 10
3 11 -12 0 -12 2 -2 9 7 4 15 14 16 22 5 25 29 69 38 69 4 0 8 5 8 12 0 7 12
23 27 35 14 13 23 23 19 23 -4 0 -1 6 6 14 7 8 16 12 19 10 4 -2 10 3 13 12 3
8 10 13 15 10 5 -3 12 1 15 10 3 8 10 12 16 9 5 -3 10 -1 10 5 0 6 12 15 28
21 15 6 38 16 52 21 14 6 37 12 52 13 15 1 30 4 33 6 4 5 121 2 162 -4z"/>
<path d="M2640 2781 c0 -5 -9 -8 -20 -6 -13 3 -18 0 -14 -7 5 -7 0 -9 -14 -6
-12 4 -22 2 -22 -4 0 -5 -4 -7 -9 -3 -5 3 -12 1 -15 -4 -3 -4 -19 -7 -36 -5
-16 2 -30 -1 -30 -7 0 -6 -4 -8 -9 -4 -6 3 -15 -4 -21 -16 -7 -11 -14 -18 -17
-15 -3 3 -12 -2 -20 -10 -8 -8 -19 -11 -25 -8 -6 4 -8 2 -4 -4 3 -6 0 -17 -8
-25 -8 -8 -12 -18 -8 -22 4 -4 2 -6 -3 -5 -21 5 -36 0 -30 -10 3 -5 1 -10 -5
-10 -6 0 -8 -4 -5 -10 7 -12 -19 -53 -28 -43 -4 3 -7 -1 -7 -10 0 -9 -5 -17
-11 -17 -5 0 -7 -4 -4 -10 3 -5 2 -10 -2 -10 -5 0 -9 -9 -10 -20 -1 -13 2 -18
10 -13 7 3 4 -3 -6 -15 -11 -11 -16 -26 -12 -31 3 -6 -2 -11 -12 -11 -10 0
-14 -3 -8 -8 12 -8 12 -38 2 -62 -8 -18 -4 -91 5 -106 4 -6 4 -14 1 -18 -13
-12 -13 -46 0 -46 7 0 8 -3 2 -8 -14 -10 -17 -32 -4 -32 5 0 7 -4 4 -10 -3 -5
-1 -10 4 -10 6 0 11 -5 11 -11 0 -5 -6 -7 -12 -3 -7 4 -2 -4 11 -19 12 -14 20
-31 16 -37 -4 -6 -1 -17 5 -25 6 -8 9 -19 5 -25 -3 -5 5 -14 19 -20 14 -5 26
-16 26 -24 0 -7 11 -21 25 -30 14 -9 23 -21 20 -26 -4 -6 -2 -10 3 -10 13 0
57 -41 55 -51 -2 -4 5 -5 14 -2 10 4 14 2 10 -4 -7 -12 20 -26 33 -18 4 3 11
-2 14 -11 3 -9 12 -14 19 -11 6 2 25 -5 41 -16 16 -12 27 -16 23 -10 -9 14 65
12 75 -2 5 -6 8 -6 8 2 0 6 11 10 25 8 14 -1 25 2 25 6 0 5 9 9 20 9 11 0 20
5 20 11 0 5 4 8 9 5 4 -3 25 3 45 13 21 11 31 21 24 24 -12 5 16 11 35 8 4 0
7 8 7 19 0 12 5 17 14 14 8 -3 16 3 19 16 4 14 10 19 18 14 7 -4 10 -3 5 4 -3
6 -1 14 5 17 5 4 8 14 5 22 -3 8 -2 12 3 9 4 -3 13 6 19 19 7 14 16 25 22 25
6 0 9 4 6 9 -3 5 3 20 14 33 11 14 16 28 13 32 -3 3 -2 6 4 6 6 0 11 6 10 13
-1 34 4 48 15 41 8 -5 9 -2 5 9 -4 10 -1 17 6 17 8 0 7 4 -3 10 -13 9 -12 12
4 21 15 9 16 13 5 20 -8 5 -9 9 -4 9 6 0 9 19 7 45 -2 25 0 45 5 45 5 0 10 7
10 15 0 8 -4 15 -9 15 -4 0 -7 3 -7 8 1 4 0 12 -1 17 -1 6 -2 27 -2 48 0 20
-5 37 -10 37 -5 0 -8 8 -6 18 1 9 -5 28 -14 41 -10 13 -15 28 -12 33 3 4 0 8
-5 8 -6 0 -10 3 -10 8 3 17 -2 33 -8 29 -10 -6 -34 19 -26 27 9 8 -80 93 -106
101 -12 3 -21 12 -21 18 0 7 -4 6 -10 -3 -8 -12 -10 -12 -10 -1 0 8 -3 11 -7
8 -3 -4 -16 -1 -27 6 -12 8 -29 13 -38 11 -10 -1 -18 1 -18 5 0 4 -9 7 -20 7
-11 0 -20 -5 -20 -11 0 -5 -5 -3 -10 5 -5 8 -10 11 -10 7 0 -4 -9 -3 -20 3
-12 7 -20 7 -20 1z m135 -94 c108 -46 197 -175 210 -303 4 -38 8 -78 9 -88 4
-30 -21 -136 -43 -187 -30 -67 -105 -142 -178 -177 -34 -16 -64 -27 -67 -24
-4 3 -6 1 -6 -4 0 -11 -46 -10 -88 2 -15 4 -33 8 -41 10 -22 4 -106 48 -110
57 -1 5 -14 19 -26 32 -13 12 -21 26 -18 29 4 3 1 6 -5 6 -22 0 -70 119 -78
190 -16 147 9 251 82 351 36 49 97 100 124 105 3 0 13 4 24 9 61 27 135 24
211 -8z"/>
<path d="M1049 2759 c-17 -4 -35 -12 -39 -19 -6 -9 -9 -9 -13 1 -4 10 -6 10
-6 2 -1 -7 -8 -13 -16 -13 -8 0 -25 -9 -37 -20 -44 -40 -53 -47 -71 -53 -10
-4 -15 -11 -12 -17 3 -5 1 -10 -5 -10 -17 0 -42 -28 -35 -40 3 -5 1 -10 -4
-10 -6 0 -11 -5 -11 -11 0 -7 -8 -18 -17 -26 -10 -8 -12 -12 -5 -8 7 4 5 -8
-7 -28 -11 -19 -17 -38 -14 -41 4 -3 2 -6 -4 -6 -6 0 -14 -7 -17 -16 -4 -9 -2
-13 5 -8 8 4 7 0 0 -15 -7 -12 -8 -21 -2 -21 12 0 -7 -73 -23 -82 -8 -5 -7 -8
3 -8 10 0 11 -3 2 -14 -9 -11 -9 -16 0 -22 8 -5 9 -3 4 6 -5 8 -4 11 2 7 5 -3
8 -24 7 -47 -1 -22 2 -42 7 -45 4 -3 6 -12 2 -21 -3 -8 3 -24 13 -36 11 -12
13 -18 5 -13 -9 5 -6 -4 7 -22 12 -17 19 -33 15 -37 -3 -3 -1 -6 6 -6 7 0 9
-5 6 -11 -4 -5 2 -18 14 -28 11 -10 18 -21 14 -25 -4 -3 1 -12 11 -19 9 -7 18
-22 19 -35 0 -12 7 -22 14 -22 14 0 35 -34 27 -43 -3 -3 4 -8 15 -12 12 -3 21
-12 21 -20 0 -8 10 -17 22 -21 12 -3 28 -13 36 -21 8 -8 27 -17 43 -20 16 -3
29 -9 29 -13 0 -3 6 -7 13 -7 50 -4 73 -9 80 -18 4 -7 10 -6 16 3 9 16 20 15
40 -1 12 -10 13 -9 7 2 -7 10 -3 12 13 6 13 -4 21 -2 21 5 0 6 4 9 9 5 5 -3
13 0 17 6 5 8 9 8 14 -1 6 -9 11 -6 20 10 10 18 14 20 21 9 7 -11 9 -10 9 4 0
9 4 17 9 17 6 0 22 11 37 25 15 14 33 25 40 25 8 0 14 6 14 13 0 7 10 24 23
37 12 14 22 28 22 33 0 4 7 12 15 17 8 5 11 10 5 10 -7 0 -7 3 0 8 10 7 38 62
49 95 4 13 2 16 -7 10 -6 -4 -4 5 6 20 10 15 15 32 12 37 -3 6 -1 10 5 10 7 0
10 7 7 15 -4 8 -2 17 3 20 6 4 7 13 1 24 -6 10 -6 23 -1 31 5 9 5 17 -1 21 -6
4 -6 15 0 32 8 19 7 27 0 27 -8 0 -8 4 0 14 8 9 8 15 2 18 -6 1 -12 20 -13 40
-2 21 -6 38 -10 38 -5 0 -8 7 -8 15 0 8 -5 15 -11 15 -5 0 -8 4 -5 9 3 4 -1
17 -9 27 -8 10 -15 29 -15 42 0 12 -6 21 -12 20 -7 -2 -12 3 -10 10 1 6 -3 12
-9 12 -5 0 -7 5 -4 10 3 6 -1 10 -10 10 -9 0 -13 5 -10 10 3 6 0 10 -7 10 -7
0 -23 13 -36 29 -12 16 -36 34 -52 41 -17 7 -30 17 -30 22 0 5 -4 6 -10 3 -5
-3 -10 -1 -10 5 0 6 -4 8 -10 5 -5 -3 -10 -1 -10 4 0 6 -12 11 -26 11 -14 0
-35 5 -47 12 -24 13 -118 17 -168 7z m225 -110 c68 -33 140 -108 167 -174 12
-30 25 -55 29 -55 3 0 6 -8 6 -17 1 -10 4 -34 8 -53 15 -74 3 -210 -24 -259
-6 -12 -8 -21 -5 -21 4 0 -1 -7 -9 -16 -9 -8 -16 -22 -16 -30 0 -8 -5 -14 -11
-14 -5 0 -7 -4 -4 -10 3 -5 2 -10 -3 -10 -5 0 -31 -20 -57 -45 -27 -24 -52
-42 -57 -39 -4 3 -8 1 -8 -4 0 -10 -42 -22 -95 -28 -16 -2 -35 -6 -42 -8 -13
-6 -90 17 -131 38 -140 73 -223 272 -190 459 10 57 56 167 69 167 5 0 9 6 9
13 0 12 35 47 97 97 7 6 18 10 25 10 7 1 24 7 38 15 39 22 145 14 204 -16z"/>
<path d="M2310 961 c0 -6 4 -13 10 -16 6 -3 7 1 4 9 -7 18 -14 21 -14 7z"/>
<path d="M2456 752 c-13 -12 -16 -12 -10 -2 6 12 5 13 -8 3 -8 -7 -18 -10 -21
-6 -4 3 -7 1 -7 -5 0 -6 -15 -9 -35 -8 -19 2 -36 -1 -37 -6 -2 -5 -18 -10 -36
-10 -18 -1 -35 -5 -39 -11 -3 -5 -9 -3 -14 4 -6 10 -9 10 -9 2 0 -7 -7 -10
-15 -7 -8 4 -15 2 -15 -3 0 -4 -16 -8 -35 -7 -19 1 -38 -2 -41 -7 -3 -5 -11
-6 -17 -2 -21 13 -49 14 -65 1 -13 -11 -14 -11 -8 0 6 9 1 12 -16 10 -12 -2
-28 -7 -35 -11 -6 -4 -14 -3 -18 3 -3 5 -11 10 -16 10 -6 0 -7 -5 -3 -12 5 -8
2 -9 -9 -5 -10 3 -17 3 -17 -1 0 -4 -18 -7 -39 -7 -22 0 -37 4 -34 8 2 4 -7 5
-21 1 -18 -4 -26 -2 -26 7 0 11 -3 11 -10 -1 -5 -8 -10 -10 -10 -5 0 14 -35
16 -65 5 -16 -6 -27 -6 -31 1 -4 8 -9 7 -15 -2 -5 -8 -9 -9 -9 -3 0 6 -21 12
-46 12 -25 1 -55 7 -66 13 -16 8 -19 8 -13 -1 5 -9 3 -9 -11 -2 -11 5 -25 7
-31 5 -7 -3 -13 0 -13 5 0 6 -9 8 -20 5 -11 -3 -20 0 -20 6 0 6 -13 11 -28 11
-15 0 -33 5 -40 12 -9 9 -12 7 -13 -13 -3 -66 -6 -96 -13 -116 -4 -12 -2 -24
4 -28 6 -3 7 -12 3 -18 -12 -19 -12 -138 0 -130 6 4 7 1 1 -8 -13 -21 -15 -47
-4 -54 6 -3 10 -11 10 -16 0 -6 -5 -7 -11 -3 -6 3 -3 -6 7 -22 12 -17 14 -25
5 -20 -10 7 -12 3 -6 -15 9 -28 27 -42 36 -28 4 7 9 4 12 -5 4 -9 18 -16 32
-16 14 0 25 -5 25 -11 0 -5 5 -7 10 -4 6 3 10 2 10 -4 0 -5 9 -8 20 -6 11 2
20 -1 20 -7 0 -6 3 -9 6 -5 4 3 21 1 38 -6 17 -7 49 -14 71 -16 22 -2 48 -7
57 -12 22 -12 31 -11 22 2 -3 6 5 3 20 -6 20 -14 26 -14 26 -4 0 12 2 12 9 0
7 -11 10 -11 15 0 4 9 8 10 11 3 3 -5 19 -9 35 -8 17 1 30 -3 30 -9 0 -8 3 -7
9 1 9 15 42 13 53 -3 5 -6 8 -5 8 2 0 7 7 10 17 6 9 -4 14 -2 11 3 -4 5 25 9
67 8 41 0 72 2 70 6 -2 4 2 7 10 7 8 0 12 -5 8 -10 -3 -5 4 -4 15 2 11 6 32
11 47 11 14 0 24 4 21 9 -3 4 5 7 18 6 14 -2 36 3 49 10 14 7 28 11 31 8 3 -3
17 2 31 11 14 9 30 14 35 11 6 -3 10 -2 10 4 0 6 7 7 17 4 10 -4 14 -2 9 5 -4
7 1 10 14 7 11 -2 20 0 20 6 0 5 6 9 13 9 22 0 47 23 52 48 2 12 0 22 -5 22
-10 0 -8 19 3 38 5 7 3 12 -4 12 -8 0 -8 4 1 15 10 12 10 15 0 15 -10 0 -10 3
-1 14 7 8 8 17 3 20 -9 5 -8 87 2 112 3 8 1 14 -3 14 -8 0 -8 21 -1 40 1 3 1
10 0 15 -1 6 -3 29 -4 53 -3 53 -16 68 -40 44z"/>
<path d="M2510 271 c0 -6 -9 -8 -20 -6 -11 2 -20 0 -20 -4 0 -4 -12 -13 -26
-19 -14 -7 -23 -16 -20 -20 3 -5 -8 -6 -25 -4 -18 3 -29 0 -29 -7 0 -7 -4 -10
-9 -6 -5 3 -15 -1 -23 -8 -7 -8 -23 -13 -35 -12 -12 1 -25 -5 -28 -13 -4 -11
-8 -12 -20 -2 -12 10 -18 10 -30 0 -12 -10 -38 -17 -82 -22 -7 -1 -13 -6 -13
-12 0 -6 -5 -4 -10 4 -5 8 -10 10 -10 4 0 -7 -19 -11 -51 -10 -27 1 -53 -2
-56 -7 -3 -5 -9 -3 -14 4 -6 9 -12 10 -16 4 -9 -11 -84 -14 -77 -3 3 4 -16 6
-41 4 -25 -1 -45 1 -45 4 0 4 -18 4 -40 0 -24 -4 -40 -3 -40 2 0 6 -7 7 -16 4
-9 -4 -23 -1 -30 5 -10 8 -14 9 -14 0 0 -8 -6 -8 -20 -1 -11 5 -29 15 -40 20
-15 7 -20 7 -20 -2 0 -9 -3 -9 -12 0 -7 7 -20 12 -30 12 -10 0 -18 4 -18 8 0
4 -12 9 -27 10 -15 1 -30 7 -34 13 -4 6 -18 12 -33 12 -14 0 -23 3 -21 7 5 8
-36 23 -65 24 -17 1 -21 -31 -6 -56 6 -10 17 -18 25 -18 7 0 20 -8 27 -18 10
-12 13 -13 14 -3 0 11 3 11 15 1 8 -7 15 -9 15 -4 0 4 7 -1 15 -12 8 -10 15
-15 15 -10 0 5 8 2 17 -5 14 -12 16 -12 9 1 -4 8 0 6 9 -5 10 -13 25 -19 42
-17 14 2 23 0 20 -5 -4 -5 4 -9 16 -8 12 1 25 -3 29 -9 5 -8 8 -7 8 2 0 9 5
10 19 2 11 -5 29 -10 41 -10 12 0 19 -4 16 -8 -3 -5 11 -8 30 -7 20 0 38 -3
41 -8 3 -5 9 -3 14 4 5 8 9 10 9 4 0 -6 25 -10 57 -9 32 1 61 -4 65 -9 4 -7
12 -6 22 2 13 11 16 11 16 0 0 -9 3 -10 8 -3 4 6 17 10 30 9 12 -1 22 1 22 4
0 9 73 7 88 -2 7 -5 14 -3 18 6 2 7 10 14 17 15 7 1 26 3 42 5 17 2 38 7 47
11 9 4 22 5 28 1 5 -3 10 -1 10 6 0 7 3 10 6 6 4 -3 19 0 35 9 16 8 29 12 29
8 0 -4 6 -1 13 5 8 6 17 8 20 4 4 -3 7 -1 7 6 0 6 6 11 13 9 15 -3 127 53 127
65 0 4 4 6 9 2 6 -3 9 10 8 30 -1 19 -5 35 -9 35 -5 0 -8 -4 -8 -9z"/>
</g>
</svg>
